<svg width="144" height="50" viewBox="0 0 144 50" fill="none" xmlns="http://www.w3.org/2000/svg">
<path d="M63.5068 8.20312V21H61.3008V8.20312H63.5068ZM68.7275 13.8018V15.5508H62.9443V13.8018H68.7275ZM69.457 8.20312V9.96094H62.9443V8.20312H69.457ZM76.0664 19.0928V14.5576C76.0664 14.2178 76.0049 13.9248 75.8818 13.6787C75.7588 13.4326 75.5713 13.2422 75.3193 13.1074C75.0732 12.9727 74.7627 12.9053 74.3877 12.9053C74.042 12.9053 73.7432 12.9639 73.4912 13.0811C73.2393 13.1982 73.043 13.3564 72.9023 13.5557C72.7617 13.7549 72.6914 13.9805 72.6914 14.2324H70.582C70.582 13.8574 70.6729 13.4941 70.8545 13.1426C71.0361 12.791 71.2998 12.4775 71.6455 12.2021C71.9912 11.9268 72.4043 11.71 72.8848 11.5518C73.3652 11.3936 73.9043 11.3145 74.502 11.3145C75.2168 11.3145 75.8496 11.4346 76.4004 11.6748C76.957 11.915 77.3936 12.2783 77.71 12.7646C78.0322 13.2451 78.1934 13.8486 78.1934 14.5752V18.8027C78.1934 19.2363 78.2227 19.626 78.2812 19.9717C78.3457 20.3115 78.4365 20.6074 78.5537 20.8594V21H76.3828C76.2832 20.7715 76.2041 20.4814 76.1455 20.1299C76.0928 19.7725 76.0664 19.4268 76.0664 19.0928ZM76.374 15.2168L76.3916 16.5264H74.8711C74.4785 16.5264 74.1328 16.5645 73.834 16.6406C73.5352 16.7109 73.2861 16.8164 73.0869 16.957C72.8877 17.0977 72.7383 17.2676 72.6387 17.4668C72.5391 17.666 72.4893 17.8916 72.4893 18.1436C72.4893 18.3955 72.5479 18.627 72.665 18.8379C72.7822 19.043 72.9521 19.2041 73.1748 19.3213C73.4033 19.4385 73.6787 19.4971 74.001 19.4971C74.4346 19.4971 74.8125 19.4092 75.1348 19.2334C75.4629 19.0518 75.7207 18.832 75.9082 18.5742C76.0957 18.3105 76.1953 18.0615 76.207 17.8271L76.8926 18.7676C76.8223 19.0078 76.7021 19.2656 76.5322 19.541C76.3623 19.8164 76.1396 20.0801 75.8643 20.332C75.5947 20.5781 75.2695 20.7803 74.8887 20.9385C74.5137 21.0967 74.0801 21.1758 73.5879 21.1758C72.9668 21.1758 72.4131 21.0527 71.9268 20.8066C71.4404 20.5547 71.0596 20.2178 70.7842 19.7959C70.5088 19.3682 70.3711 18.8848 70.3711 18.3457C70.3711 17.8418 70.4648 17.3965 70.6523 17.0098C70.8457 16.6172 71.127 16.2891 71.4961 16.0254C71.8711 15.7617 72.3281 15.5625 72.8672 15.4277C73.4062 15.2871 74.0215 15.2168 74.7129 15.2168H76.374ZM85.7432 18.4248C85.7432 18.2139 85.6904 18.0234 85.585 17.8535C85.4795 17.6777 85.2773 17.5195 84.9785 17.3789C84.6855 17.2383 84.252 17.1094 83.6777 16.9922C83.1738 16.8809 82.7109 16.749 82.2891 16.5967C81.873 16.4385 81.5156 16.248 81.2168 16.0254C80.918 15.8027 80.6865 15.5391 80.5225 15.2344C80.3584 14.9297 80.2764 14.5781 80.2764 14.1797C80.2764 13.793 80.3613 13.4268 80.5312 13.0811C80.7012 12.7354 80.9443 12.4307 81.2607 12.167C81.5771 11.9033 81.9609 11.6953 82.4121 11.543C82.8691 11.3906 83.3789 11.3145 83.9414 11.3145C84.7383 11.3145 85.4209 11.4492 85.9893 11.7188C86.5635 11.9824 87.0029 12.3428 87.3076 12.7998C87.6123 13.251 87.7646 13.7607 87.7646 14.3291H85.6465C85.6465 14.0771 85.582 13.8428 85.4531 13.626C85.3301 13.4033 85.1426 13.2246 84.8906 13.0898C84.6387 12.9492 84.3223 12.8789 83.9414 12.8789C83.5781 12.8789 83.2764 12.9375 83.0361 13.0547C82.8018 13.166 82.626 13.3125 82.5088 13.4941C82.3975 13.6758 82.3418 13.875 82.3418 14.0918C82.3418 14.25 82.3711 14.3936 82.4297 14.5225C82.4941 14.6455 82.5996 14.7598 82.7461 14.8652C82.8926 14.9648 83.0918 15.0586 83.3438 15.1465C83.6016 15.2344 83.9238 15.3193 84.3105 15.4014C85.0371 15.5537 85.6611 15.75 86.1826 15.9902C86.71 16.2246 87.1143 16.5293 87.3955 16.9043C87.6768 17.2734 87.8174 17.7422 87.8174 18.3105C87.8174 18.7324 87.7266 19.1191 87.5449 19.4707C87.3691 19.8164 87.1113 20.1182 86.7715 20.376C86.4316 20.6279 86.0244 20.8242 85.5498 20.9648C85.0811 21.1055 84.5537 21.1758 83.9678 21.1758C83.1064 21.1758 82.377 21.0234 81.7793 20.7188C81.1816 20.4082 80.7275 20.0127 80.417 19.5322C80.1123 19.0459 79.96 18.542 79.96 18.0205H82.0078C82.0312 18.4131 82.1396 18.7266 82.333 18.9609C82.5322 19.1895 82.7783 19.3564 83.0713 19.4619C83.3701 19.5615 83.6777 19.6113 83.9941 19.6113C84.375 19.6113 84.6943 19.5615 84.9521 19.4619C85.21 19.3564 85.4062 19.2158 85.541 19.04C85.6758 18.8584 85.7432 18.6533 85.7432 18.4248ZM94.0312 11.4902V13.0371H88.6699V11.4902H94.0312ZM90.2168 9.16113H92.335V18.3721C92.335 18.665 92.376 18.8906 92.458 19.0488C92.5459 19.2012 92.666 19.3037 92.8184 19.3564C92.9707 19.4092 93.1494 19.4355 93.3545 19.4355C93.501 19.4355 93.6416 19.4268 93.7764 19.4092C93.9111 19.3916 94.0195 19.374 94.1016 19.3564L94.1104 20.9736C93.9346 21.0264 93.7295 21.0732 93.4951 21.1143C93.2666 21.1553 93.0029 21.1758 92.7041 21.1758C92.2178 21.1758 91.7871 21.0908 91.4121 20.9209C91.0371 20.7451 90.7441 20.4609 90.5332 20.0684C90.3223 19.6758 90.2168 19.1543 90.2168 18.5039V9.16113ZM105.22 16.2275H101.889V14.4785H105.22C105.8 14.4785 106.269 14.3848 106.626 14.1973C106.983 14.0098 107.244 13.752 107.408 13.4238C107.578 13.0898 107.663 12.709 107.663 12.2812C107.663 11.877 107.578 11.499 107.408 11.1475C107.244 10.79 106.983 10.5029 106.626 10.2861C106.269 10.0693 105.8 9.96094 105.22 9.96094H102.565V21H100.359V8.20312H105.22C106.21 8.20312 107.051 8.37891 107.742 8.73047C108.439 9.07617 108.97 9.55664 109.333 10.1719C109.696 10.7812 109.878 11.4785 109.878 12.2637C109.878 13.0898 109.696 13.7988 109.333 14.3906C108.97 14.9824 108.439 15.4365 107.742 15.7529C107.051 16.0693 106.21 16.2275 105.22 16.2275ZM116.9 19.0928V14.5576C116.9 14.2178 116.839 13.9248 116.716 13.6787C116.593 13.4326 116.405 13.2422 116.153 13.1074C115.907 12.9727 115.597 12.9053 115.222 12.9053C114.876 12.9053 114.577 12.9639 114.325 13.0811C114.073 13.1982 113.877 13.3564 113.736 13.5557C113.596 13.7549 113.525 13.9805 113.525 14.2324H111.416C111.416 13.8574 111.507 13.4941 111.688 13.1426C111.87 12.791 112.134 12.4775 112.479 12.2021C112.825 11.9268 113.238 11.71 113.719 11.5518C114.199 11.3936 114.738 11.3145 115.336 11.3145C116.051 11.3145 116.684 11.4346 117.234 11.6748C117.791 11.915 118.228 12.2783 118.544 12.7646C118.866 13.2451 119.027 13.8486 119.027 14.5752V18.8027C119.027 19.2363 119.057 19.626 119.115 19.9717C119.18 20.3115 119.271 20.6074 119.388 20.8594V21H117.217C117.117 20.7715 117.038 20.4814 116.979 20.1299C116.927 19.7725 116.9 19.4268 116.9 19.0928ZM117.208 15.2168L117.226 16.5264H115.705C115.312 16.5264 114.967 16.5645 114.668 16.6406C114.369 16.7109 114.12 16.8164 113.921 16.957C113.722 17.0977 113.572 17.2676 113.473 17.4668C113.373 17.666 113.323 17.8916 113.323 18.1436C113.323 18.3955 113.382 18.627 113.499 18.8379C113.616 19.043 113.786 19.2041 114.009 19.3213C114.237 19.4385 114.513 19.4971 114.835 19.4971C115.269 19.4971 115.646 19.4092 115.969 19.2334C116.297 19.0518 116.555 18.832 116.742 18.5742C116.93 18.3105 117.029 18.0615 117.041 17.8271L117.727 18.7676C117.656 19.0078 117.536 19.2656 117.366 19.541C117.196 19.8164 116.974 20.0801 116.698 20.332C116.429 20.5781 116.104 20.7803 115.723 20.9385C115.348 21.0967 114.914 21.1758 114.422 21.1758C113.801 21.1758 113.247 21.0527 112.761 20.8066C112.274 20.5547 111.894 20.2178 111.618 19.7959C111.343 19.3682 111.205 18.8848 111.205 18.3457C111.205 17.8418 111.299 17.3965 111.486 17.0098C111.68 16.6172 111.961 16.2891 112.33 16.0254C112.705 15.7617 113.162 15.5625 113.701 15.4277C114.24 15.2871 114.855 15.2168 115.547 15.2168H117.208ZM125.127 19.4883C125.473 19.4883 125.783 19.4209 126.059 19.2861C126.34 19.1455 126.565 18.9521 126.735 18.7061C126.911 18.46 127.008 18.1758 127.025 17.8535H129.021C129.009 18.4688 128.827 19.0283 128.476 19.5322C128.124 20.0361 127.658 20.4375 127.078 20.7363C126.498 21.0293 125.856 21.1758 125.153 21.1758C124.427 21.1758 123.794 21.0527 123.255 20.8066C122.716 20.5547 122.268 20.209 121.91 19.7695C121.553 19.3301 121.283 18.8232 121.102 18.249C120.926 17.6748 120.838 17.0596 120.838 16.4033V16.0957C120.838 15.4395 120.926 14.8242 121.102 14.25C121.283 13.6699 121.553 13.1602 121.91 12.7207C122.268 12.2812 122.716 11.9385 123.255 11.6924C123.794 11.4404 124.424 11.3145 125.145 11.3145C125.906 11.3145 126.574 11.4668 127.148 11.7715C127.723 12.0703 128.174 12.4893 128.502 13.0283C128.836 13.5615 129.009 14.1826 129.021 14.8916H127.025C127.008 14.54 126.92 14.2236 126.762 13.9424C126.609 13.6553 126.393 13.4268 126.111 13.2568C125.836 13.0869 125.505 13.002 125.118 13.002C124.69 13.002 124.336 13.0898 124.055 13.2656C123.773 13.4355 123.554 13.6699 123.396 13.9688C123.237 14.2617 123.123 14.5928 123.053 14.9619C122.988 15.3252 122.956 15.7031 122.956 16.0957V16.4033C122.956 16.7959 122.988 17.1768 123.053 17.5459C123.117 17.915 123.229 18.2461 123.387 18.5391C123.551 18.8262 123.773 19.0576 124.055 19.2334C124.336 19.4033 124.693 19.4883 125.127 19.4883ZM134.839 21.1758C134.136 21.1758 133.5 21.0615 132.932 20.833C132.369 20.5986 131.889 20.2734 131.49 19.8574C131.098 19.4414 130.796 18.9521 130.585 18.3896C130.374 17.8271 130.269 17.2207 130.269 16.5703V16.2188C130.269 15.4746 130.377 14.8008 130.594 14.1973C130.811 13.5938 131.112 13.0781 131.499 12.6504C131.886 12.2168 132.343 11.8857 132.87 11.6572C133.397 11.4287 133.969 11.3145 134.584 11.3145C135.264 11.3145 135.858 11.4287 136.368 11.6572C136.878 11.8857 137.3 12.208 137.634 12.624C137.974 13.0342 138.226 13.5234 138.39 14.0918C138.56 14.6602 138.645 15.2871 138.645 15.9727V16.8779H131.297V15.3574H136.553V15.1904C136.541 14.8096 136.465 14.4521 136.324 14.1182C136.189 13.7842 135.981 13.5146 135.7 13.3096C135.419 13.1045 135.044 13.002 134.575 13.002C134.224 13.002 133.91 13.0781 133.635 13.2305C133.365 13.377 133.14 13.5908 132.958 13.8721C132.776 14.1533 132.636 14.4932 132.536 14.8916C132.442 15.2842 132.396 15.7266 132.396 16.2188V16.5703C132.396 16.9863 132.451 17.373 132.562 17.7305C132.68 18.082 132.85 18.3896 133.072 18.6533C133.295 18.917 133.564 19.125 133.881 19.2773C134.197 19.4238 134.558 19.4971 134.962 19.4971C135.472 19.4971 135.926 19.3945 136.324 19.1895C136.723 18.9844 137.068 18.6943 137.361 18.3193L138.478 19.4004C138.272 19.6992 138.006 19.9863 137.678 20.2617C137.35 20.5312 136.948 20.751 136.474 20.9209C136.005 21.0908 135.46 21.1758 134.839 21.1758Z" fill="#F3F7FA"/>
<path d="M66.8975 39.5527C66.8975 39.2793 66.8519 39.0355 66.7607 38.8213C66.6696 38.6071 66.5192 38.4157 66.3096 38.2471C66.1045 38.0739 65.8265 37.9144 65.4756 37.7686C65.1292 37.6182 64.6963 37.4701 64.1768 37.3242C63.68 37.1829 63.2311 37.028 62.8301 36.8594C62.429 36.6908 62.085 36.4971 61.7979 36.2783C61.5153 36.0596 61.2988 35.8044 61.1484 35.5127C60.998 35.2165 60.9229 34.8724 60.9229 34.4805C60.9229 34.0977 61.0049 33.749 61.1689 33.4346C61.333 33.1201 61.5632 32.849 61.8594 32.6211C62.1602 32.3932 62.5133 32.2178 62.9189 32.0947C63.3291 31.9717 63.778 31.9102 64.2656 31.9102C64.9629 31.9102 65.5645 32.0423 66.0703 32.3066C66.5807 32.571 66.9749 32.9287 67.2529 33.3799C67.5355 33.8265 67.6768 34.3278 67.6768 34.8838H66.8359C66.8359 34.4508 66.7334 34.0658 66.5283 33.7285C66.3278 33.3867 66.0361 33.1201 65.6533 32.9287C65.2751 32.7327 64.8125 32.6348 64.2656 32.6348C63.7188 32.6348 63.2585 32.7191 62.8848 32.8877C62.5156 33.0518 62.2354 33.2728 62.0439 33.5508C61.8571 33.8242 61.7637 34.1296 61.7637 34.4668C61.7637 34.7038 61.8092 34.9225 61.9004 35.123C61.9915 35.319 62.1396 35.5036 62.3447 35.6768C62.5544 35.8454 62.8301 36.0049 63.1719 36.1553C63.5137 36.3011 63.9352 36.4401 64.4365 36.5723C64.9652 36.7181 65.4346 36.8799 65.8447 37.0576C66.2549 37.2354 66.6012 37.4404 66.8838 37.6729C67.1663 37.9007 67.3805 38.1673 67.5264 38.4727C67.6722 38.778 67.7451 39.1335 67.7451 39.5391C67.7451 39.9447 67.6585 40.3092 67.4854 40.6328C67.3167 40.9518 67.0775 41.223 66.7676 41.4463C66.4622 41.6696 66.0999 41.8405 65.6807 41.959C65.266 42.0775 64.8125 42.1367 64.3203 42.1367C63.8783 42.1367 63.4385 42.0798 63.001 41.9658C62.5635 41.8519 62.1624 41.6764 61.7979 41.4395C61.4378 41.1979 61.1484 40.888 60.9297 40.5098C60.7155 40.1315 60.6084 39.6803 60.6084 39.1562H61.4424C61.4424 39.5755 61.5267 39.9287 61.6953 40.2158C61.8639 40.5029 62.0872 40.7354 62.3652 40.9131C62.6478 41.0908 62.9577 41.2207 63.2949 41.3027C63.6367 41.3802 63.9785 41.4189 64.3203 41.4189C64.8444 41.4189 65.2979 41.3415 65.6807 41.1865C66.068 41.0316 66.3665 40.8151 66.5762 40.5371C66.7904 40.2546 66.8975 39.9264 66.8975 39.5527ZM70.1855 36.1826V42H69.3721V34.6035H70.1514L70.1855 36.1826ZM70.001 37.8438L69.6387 37.6387C69.666 37.2012 69.7549 36.791 69.9053 36.4082C70.0557 36.0254 70.2585 35.6882 70.5137 35.3965C70.7734 35.1048 71.0765 34.877 71.4229 34.7129C71.7738 34.5488 72.1611 34.4668 72.585 34.4668C72.9541 34.4668 73.2845 34.5169 73.5762 34.6172C73.8678 34.7174 74.1162 34.877 74.3213 35.0957C74.5264 35.3145 74.6813 35.5947 74.7861 35.9365C74.8955 36.2783 74.9502 36.6953 74.9502 37.1875V42H74.1299V37.1807C74.1299 36.6702 74.0592 36.2715 73.918 35.9844C73.7767 35.6927 73.5762 35.4854 73.3164 35.3623C73.0566 35.2393 72.749 35.1777 72.3936 35.1777C72.0016 35.1777 71.6576 35.2643 71.3613 35.4375C71.0697 35.6061 70.8236 35.8271 70.623 36.1006C70.4271 36.3695 70.2767 36.6589 70.1719 36.9688C70.0671 37.2741 70.0101 37.5658 70.001 37.8438ZM79.9268 42.1367C79.4437 42.1367 78.9993 42.0479 78.5938 41.8701C78.1927 41.6924 77.8418 41.4417 77.541 41.1182C77.2448 40.7946 77.0146 40.4118 76.8506 39.9697C76.6911 39.5231 76.6113 39.0355 76.6113 38.5068V38.2129C76.6113 37.6432 76.6956 37.1283 76.8643 36.668C77.0329 36.2077 77.2653 35.8135 77.5615 35.4854C77.8577 35.1572 78.195 34.9066 78.5732 34.7334C78.9561 34.5557 79.3571 34.4668 79.7764 34.4668C80.2458 34.4668 80.6628 34.5511 81.0273 34.7197C81.3919 34.8838 81.6973 35.1185 81.9434 35.4238C82.194 35.7246 82.3831 36.0824 82.5107 36.4971C82.6383 36.9072 82.7021 37.3607 82.7021 37.8574V38.3564H77.1035V37.6592H81.8887V37.5635C81.8796 37.1488 81.7952 36.7614 81.6357 36.4014C81.4808 36.0368 81.2484 35.7406 80.9385 35.5127C80.6286 35.2848 80.2412 35.1709 79.7764 35.1709C79.43 35.1709 79.111 35.2438 78.8193 35.3896C78.5322 35.5355 78.2839 35.7451 78.0742 36.0186C77.8691 36.2874 77.7096 36.6087 77.5957 36.9824C77.4863 37.3516 77.4316 37.7617 77.4316 38.2129V38.5068C77.4316 38.917 77.4909 39.2998 77.6094 39.6553C77.7324 40.0062 77.9056 40.3161 78.1289 40.585C78.3568 40.8538 78.6257 41.0635 78.9355 41.2139C79.2454 41.3643 79.5872 41.4395 79.9609 41.4395C80.3984 41.4395 80.7858 41.3597 81.123 41.2002C81.4603 41.0361 81.7633 40.7786 82.0322 40.4277L82.5449 40.8242C82.3854 41.0612 82.1849 41.2799 81.9434 41.4805C81.7064 41.681 81.4215 41.8405 81.0889 41.959C80.7562 42.0775 80.3688 42.1367 79.9268 42.1367ZM88.8135 40.6738V36.8594C88.8135 36.5085 88.7406 36.2054 88.5947 35.9502C88.4489 35.695 88.2347 35.499 87.9521 35.3623C87.6696 35.2256 87.321 35.1572 86.9062 35.1572C86.5234 35.1572 86.1816 35.2256 85.8809 35.3623C85.5846 35.4945 85.3499 35.6745 85.1768 35.9023C85.0081 36.1257 84.9238 36.374 84.9238 36.6475L84.1035 36.6406C84.1035 36.3626 84.1719 36.0938 84.3086 35.834C84.4453 35.5742 84.639 35.3418 84.8896 35.1367C85.1403 34.9316 85.4388 34.7699 85.7852 34.6514C86.1361 34.5283 86.5212 34.4668 86.9404 34.4668C87.4691 34.4668 87.9339 34.5557 88.335 34.7334C88.7406 34.9111 89.0573 35.1777 89.2852 35.5332C89.513 35.8887 89.627 36.3353 89.627 36.873V40.4482C89.627 40.7035 89.6452 40.9678 89.6816 41.2412C89.7227 41.5146 89.7796 41.7402 89.8525 41.918V42H88.9844C88.9297 41.8359 88.8864 41.6309 88.8545 41.3848C88.8271 41.1341 88.8135 40.8971 88.8135 40.6738ZM89.0049 37.6934L89.0186 38.3223H87.4121C86.9928 38.3223 86.6169 38.361 86.2842 38.4385C85.9561 38.5114 85.6781 38.6208 85.4502 38.7666C85.2223 38.9079 85.0469 39.0788 84.9238 39.2793C84.8053 39.4798 84.7461 39.7077 84.7461 39.9629C84.7461 40.2272 84.8122 40.4688 84.9443 40.6875C85.0811 40.9062 85.2725 41.0817 85.5186 41.2139C85.7692 41.3415 86.0654 41.4053 86.4072 41.4053C86.863 41.4053 87.264 41.321 87.6104 41.1523C87.9613 40.9837 88.2507 40.7627 88.4785 40.4893C88.7064 40.2158 88.859 39.9173 88.9365 39.5938L89.292 40.0654C89.2327 40.2933 89.1234 40.528 88.9639 40.7695C88.8089 41.0065 88.6061 41.2298 88.3555 41.4395C88.1048 41.6445 87.8086 41.8132 87.4668 41.9453C87.1296 42.0729 86.7467 42.1367 86.3184 42.1367C85.8353 42.1367 85.4137 42.0456 85.0537 41.8633C84.6982 41.681 84.4202 41.4326 84.2197 41.1182C84.0238 40.7992 83.9258 40.4391 83.9258 40.0381C83.9258 39.6735 84.0033 39.3477 84.1582 39.0605C84.3132 38.7689 84.5365 38.5228 84.8281 38.3223C85.1243 38.1172 85.4798 37.9622 85.8945 37.8574C86.3138 37.748 86.7832 37.6934 87.3027 37.6934H89.0049ZM92.6348 31.5V42H91.8213V31.5H92.6348ZM97.2764 34.6035L93.8174 38.0352L92.3477 39.457L92.2246 38.6572L93.4072 37.3789L96.2441 34.6035H97.2764ZM96.5654 42L93.4756 38.1582L93.9268 37.4541L97.5498 42H96.5654ZM101.405 42.1367C100.922 42.1367 100.478 42.0479 100.072 41.8701C99.6712 41.6924 99.3203 41.4417 99.0195 41.1182C98.7233 40.7946 98.4932 40.4118 98.3291 39.9697C98.1696 39.5231 98.0898 39.0355 98.0898 38.5068V38.2129C98.0898 37.6432 98.1742 37.1283 98.3428 36.668C98.5114 36.2077 98.7438 35.8135 99.04 35.4854C99.3363 35.1572 99.6735 34.9066 100.052 34.7334C100.435 34.5557 100.836 34.4668 101.255 34.4668C101.724 34.4668 102.141 34.5511 102.506 34.7197C102.87 34.8838 103.176 35.1185 103.422 35.4238C103.673 35.7246 103.862 36.0824 103.989 36.4971C104.117 36.9072 104.181 37.3607 104.181 37.8574V38.3564H98.582V37.6592H103.367V37.5635C103.358 37.1488 103.274 36.7614 103.114 36.4014C102.959 36.0368 102.727 35.7406 102.417 35.5127C102.107 35.2848 101.72 35.1709 101.255 35.1709C100.909 35.1709 100.59 35.2438 100.298 35.3896C100.011 35.5355 99.7624 35.7451 99.5527 36.0186C99.3477 36.2874 99.1882 36.6087 99.0742 36.9824C98.9648 37.3516 98.9102 37.7617 98.9102 38.2129V38.5068C98.9102 38.917 98.9694 39.2998 99.0879 39.6553C99.2109 40.0062 99.3841 40.3161 99.6074 40.585C99.8353 40.8538 100.104 41.0635 100.414 41.2139C100.724 41.3643 101.066 41.4395 101.439 41.4395C101.877 41.4395 102.264 41.3597 102.602 41.2002C102.939 41.0361 103.242 40.7786 103.511 40.4277L104.023 40.8242C103.864 41.0612 103.663 41.2799 103.422 41.4805C103.185 41.681 102.9 41.8405 102.567 41.959C102.235 42.0775 101.847 42.1367 101.405 42.1367ZM106.607 35.8271V42H105.794V34.6035H106.587L106.607 35.8271ZM109.226 34.5488L109.205 35.3008C109.114 35.2871 109.025 35.2757 108.938 35.2666C108.852 35.2575 108.758 35.2529 108.658 35.2529C108.303 35.2529 107.991 35.319 107.722 35.4512C107.457 35.5788 107.234 35.7588 107.052 35.9912C106.869 36.2191 106.73 36.488 106.635 36.7979C106.539 37.1032 106.484 37.4313 106.471 37.7822L106.17 37.8984C106.17 37.4154 106.22 36.9665 106.32 36.5518C106.421 36.137 106.573 35.7747 106.778 35.4648C106.988 35.1504 107.25 34.9066 107.564 34.7334C107.883 34.5557 108.257 34.4668 108.686 34.4668C108.79 34.4668 108.893 34.4759 108.993 34.4941C109.098 34.5078 109.175 34.526 109.226 34.5488ZM118.358 40.1133C118.358 39.9128 118.308 39.7145 118.208 39.5186C118.108 39.3226 117.914 39.1426 117.627 38.9785C117.344 38.8145 116.927 38.6755 116.376 38.5615C115.966 38.4704 115.599 38.3678 115.275 38.2539C114.956 38.14 114.688 38.0033 114.469 37.8438C114.25 37.6842 114.084 37.4928 113.97 37.2695C113.856 37.0462 113.799 36.7819 113.799 36.4766C113.799 36.2031 113.858 35.9456 113.977 35.7041C114.1 35.458 114.273 35.2438 114.496 35.0615C114.724 34.8747 114.997 34.7288 115.316 34.624C115.64 34.5192 116.002 34.4668 116.403 34.4668C116.973 34.4668 117.461 34.5648 117.866 34.7607C118.276 34.9521 118.589 35.2142 118.803 35.5469C119.021 35.8796 119.131 36.2555 119.131 36.6748H118.317C118.317 36.4196 118.242 36.1781 118.092 35.9502C117.946 35.7223 117.729 35.5355 117.442 35.3896C117.16 35.2438 116.813 35.1709 116.403 35.1709C115.979 35.1709 115.635 35.2347 115.371 35.3623C115.107 35.4899 114.913 35.6517 114.79 35.8477C114.672 36.0436 114.612 36.2464 114.612 36.4561C114.612 36.6201 114.637 36.7705 114.688 36.9072C114.742 37.0394 114.838 37.1624 114.975 37.2764C115.116 37.3903 115.316 37.4974 115.576 37.5977C115.836 37.6979 116.173 37.7959 116.588 37.8916C117.185 38.0238 117.673 38.1855 118.051 38.377C118.434 38.5638 118.716 38.7962 118.898 39.0742C119.081 39.3477 119.172 39.6803 119.172 40.0723C119.172 40.3776 119.108 40.6579 118.98 40.9131C118.853 41.1637 118.668 41.3802 118.427 41.5625C118.19 41.7448 117.903 41.8861 117.565 41.9863C117.233 42.0866 116.859 42.1367 116.444 42.1367C115.82 42.1367 115.291 42.0342 114.858 41.8291C114.43 41.6195 114.104 41.346 113.881 41.0088C113.662 40.667 113.553 40.3047 113.553 39.9219H114.366C114.394 40.3047 114.514 40.6077 114.729 40.8311C114.943 41.0498 115.205 41.2048 115.515 41.2959C115.829 41.387 116.139 41.4326 116.444 41.4326C116.864 41.4326 117.215 41.3711 117.497 41.248C117.78 41.125 117.994 40.9632 118.14 40.7627C118.285 40.5622 118.358 40.3457 118.358 40.1133ZM123.82 34.6035V35.2734H120.115V34.6035H123.82ZM121.476 32.7031H122.289V40.2021C122.289 40.5439 122.335 40.8014 122.426 40.9746C122.517 41.1478 122.635 41.264 122.781 41.3232C122.927 41.3825 123.084 41.4121 123.253 41.4121C123.376 41.4121 123.494 41.4053 123.608 41.3916C123.722 41.3734 123.825 41.3551 123.916 41.3369L123.95 42.0273C123.85 42.0592 123.72 42.0843 123.561 42.1025C123.401 42.1253 123.242 42.1367 123.082 42.1367C122.768 42.1367 122.49 42.0798 122.248 41.9658C122.007 41.8473 121.817 41.6468 121.681 41.3643C121.544 41.0771 121.476 40.6875 121.476 40.1953V32.7031ZM124.948 38.418V38.1924C124.948 37.6546 125.026 37.1579 125.181 36.7021C125.336 36.2464 125.557 35.8522 125.844 35.5195C126.135 35.1868 126.484 34.9294 126.89 34.7471C127.295 34.5602 127.746 34.4668 128.243 34.4668C128.744 34.4668 129.198 34.5602 129.604 34.7471C130.009 34.9294 130.358 35.1868 130.649 35.5195C130.941 35.8522 131.164 36.2464 131.319 36.7021C131.474 37.1579 131.552 37.6546 131.552 38.1924V38.418C131.552 38.9557 131.474 39.4525 131.319 39.9082C131.164 40.3594 130.941 40.7513 130.649 41.084C130.362 41.4167 130.016 41.6764 129.61 41.8633C129.205 42.0456 128.754 42.1367 128.257 42.1367C127.756 42.1367 127.302 42.0456 126.896 41.8633C126.491 41.6764 126.142 41.4167 125.851 41.084C125.559 40.7513 125.336 40.3594 125.181 39.9082C125.026 39.4525 124.948 38.9557 124.948 38.418ZM125.762 38.1924V38.418C125.762 38.8236 125.816 39.2087 125.926 39.5732C126.035 39.9333 126.195 40.2546 126.404 40.5371C126.614 40.8151 126.874 41.0339 127.184 41.1934C127.493 41.3529 127.851 41.4326 128.257 41.4326C128.658 41.4326 129.011 41.3529 129.316 41.1934C129.626 41.0339 129.886 40.8151 130.096 40.5371C130.305 40.2546 130.463 39.9333 130.567 39.5732C130.677 39.2087 130.731 38.8236 130.731 38.418V38.1924C130.731 37.7913 130.677 37.4108 130.567 37.0508C130.463 36.6908 130.303 36.3695 130.089 36.0869C129.879 35.8044 129.619 35.5811 129.31 35.417C129 35.2529 128.644 35.1709 128.243 35.1709C127.842 35.1709 127.487 35.2529 127.177 35.417C126.871 35.5811 126.612 35.8044 126.397 36.0869C126.188 36.3695 126.028 36.6908 125.919 37.0508C125.814 37.4108 125.762 37.7913 125.762 38.1924ZM134.061 35.8271V42H133.247V34.6035H134.04L134.061 35.8271ZM136.679 34.5488L136.658 35.3008C136.567 35.2871 136.478 35.2757 136.392 35.2666C136.305 35.2575 136.212 35.2529 136.111 35.2529C135.756 35.2529 135.444 35.319 135.175 35.4512C134.91 35.5788 134.687 35.7588 134.505 35.9912C134.323 36.2191 134.184 36.488 134.088 36.7979C133.992 37.1032 133.938 37.4313 133.924 37.7822L133.623 37.8984C133.623 37.4154 133.673 36.9665 133.773 36.5518C133.874 36.137 134.026 35.7747 134.231 35.4648C134.441 35.1504 134.703 34.9066 135.018 34.7334C135.337 34.5557 135.71 34.4668 136.139 34.4668C136.243 34.4668 136.346 34.4759 136.446 34.4941C136.551 34.5078 136.629 34.526 136.679 34.5488ZM140.685 42.1367C140.201 42.1367 139.757 42.0479 139.352 41.8701C138.951 41.6924 138.6 41.4417 138.299 41.1182C138.003 40.7946 137.772 40.4118 137.608 39.9697C137.449 39.5231 137.369 39.0355 137.369 38.5068V38.2129C137.369 37.6432 137.453 37.1283 137.622 36.668C137.791 36.2077 138.023 35.8135 138.319 35.4854C138.616 35.1572 138.953 34.9066 139.331 34.7334C139.714 34.5557 140.115 34.4668 140.534 34.4668C141.004 34.4668 141.421 34.5511 141.785 34.7197C142.15 34.8838 142.455 35.1185 142.701 35.4238C142.952 35.7246 143.141 36.0824 143.269 36.4971C143.396 36.9072 143.46 37.3607 143.46 37.8574V38.3564H137.861V37.6592H142.646V37.5635C142.637 37.1488 142.553 36.7614 142.394 36.4014C142.239 36.0368 142.006 35.7406 141.696 35.5127C141.386 35.2848 140.999 35.1709 140.534 35.1709C140.188 35.1709 139.869 35.2438 139.577 35.3896C139.29 35.5355 139.042 35.7451 138.832 36.0186C138.627 36.2874 138.467 36.6087 138.354 36.9824C138.244 37.3516 138.189 37.7617 138.189 38.2129V38.5068C138.189 38.917 138.249 39.2998 138.367 39.6553C138.49 40.0062 138.663 40.3161 138.887 40.585C139.115 40.8538 139.383 41.0635 139.693 41.2139C140.003 41.3643 140.345 41.4395 140.719 41.4395C141.156 41.4395 141.544 41.3597 141.881 41.2002C142.218 41.0361 142.521 40.7786 142.79 40.4277L143.303 40.8242C143.143 41.0612 142.943 41.2799 142.701 41.4805C142.464 41.681 142.179 41.8405 141.847 41.959C141.514 42.0775 141.127 42.1367 140.685 42.1367Z" fill="#F3F7FA"/>
<path d="M24.205 40.7125L48.5697 20.0314L50 21.7175L25.6318 42.4002L25.6283 42.4033C22.8589 44.7339 19.343 46.0166 15.7217 46.0174H0.10498V43.8066H15.7217C18.8187 43.8065 21.8357 42.7076 24.205 40.7125Z" fill="#F3F7FA"/>
<path d="M15.7218 41.5965C15.7218 41.5965 9.49903 41.5965 3.97285 41.5965C-1.55322 41.5965 -0.72451 36.0701 2.86758 35.2416C5.29121 34.6823 8.40293 33.3964 8.40293 33.3964C9.63116 32.9869 10.6368 32.0889 11.1805 30.916C11.1805 30.916 11.3149 30.6308 11.5406 30.1509L16.0518 31.5148C16.5447 31.664 17.0655 31.3857 17.2147 30.8928C17.363 30.3998 17.0852 29.879 16.5922 29.7306L12.3414 28.4448C12.7069 27.666 13.1308 26.7611 13.5773 25.806L17.7933 27.0818C18.2863 27.231 18.8071 26.9504 18.9563 26.459C19.1058 25.966 18.8256 25.4452 18.3339 25.2961L14.376 24.0992C14.7971 23.1951 15.2159 22.2949 15.6039 21.458L19.5351 22.6479C20.0281 22.7963 20.5489 22.518 20.6983 22.0251C20.8463 21.5321 20.5686 21.0113 20.0755 20.8629L16.3931 19.7487C16.9209 18.5997 17.3038 17.7481 17.4058 17.4838C17.8489 16.3317 18.8222 13.1357 21.043 14.9121C24.6944 17.8354 31.3557 16.9784 33.0754 13.7832C34.3646 11.3885 33.6275 8.81 33.0754 6.78383C32.6334 5.1643 34.918 2.639 36.5751 4.84975C37.7478 6.41215 47.6274 18.1112 47.6274 18.1112L22.7813 39.021C20.8047 40.6847 18.3049 41.5965 15.7218 41.5965Z" fill="#F3F7FA"/>
</svg>
