<svg width="46" height="44" viewBox="0 0 46 44" fill="none" xmlns="http://www.w3.org/2000/svg">
<g clip-path="url(#clip0_40_144)">
<path fillRule="evenodd" clipRule="evenodd" d="M10.1929 14.2618C10.329 12.3363 10.9379 10.4742 11.9657 8.84035C12.9935 7.20651 14.4084 5.85141 16.0851 4.89511C17.7618 3.93881 19.6485 3.41084 21.578 3.35798C23.5075 3.30513 25.4203 3.72901 27.1468 4.59208C28.8734 5.45514 30.3603 6.73075 31.4761 8.30587C32.5918 9.88099 33.3017 11.707 33.5431 13.6221C33.7844 15.5372 33.5496 17.4822 32.8596 19.2849C32.1695 21.0876 31.0455 22.6922 29.587 23.9566C28.9776 22.0282 27.987 20.2418 26.6738 18.7037C25.3606 17.1655 23.7518 15.9069 21.9427 15.0026C20.1337 14.0983 18.1614 13.5668 16.143 13.4395C14.1246 13.3122 12.1011 13.5918 10.1929 14.2618ZM6.8353 15.9383C6.73122 13.9447 7.02376 11.9504 7.69596 10.0707C8.36817 8.191 9.40668 6.46339 10.7513 4.98794C12.096 3.51249 13.7201 2.31852 15.5294 1.47522C17.3388 0.631912 19.2976 0.156029 21.2922 0.0751376C23.2868 -0.00575343 25.2777 0.309956 27.1494 1.00398C29.0211 1.69799 30.7366 2.75653 32.1963 4.11825C33.656 5.47997 34.831 7.11781 35.6532 8.93689C36.4754 10.756 36.9285 12.7201 36.9862 14.7155C38.8666 15.5566 40.555 16.7738 41.9473 18.2921C43.3395 19.8104 44.4062 21.5977 45.0815 23.5439C45.7569 25.49 46.0267 27.5539 45.8742 29.6082C45.7218 31.6626 45.1503 33.664 44.1951 35.4891C43.2399 37.3143 41.9211 38.9245 40.32 40.2207C38.7189 41.5169 36.8693 42.4716 34.8853 43.0259C32.9013 43.5802 30.8248 43.7224 28.7837 43.4439C26.7426 43.1653 24.7802 42.4717 23.0172 41.406C19.641 43.4893 15.5802 44.1591 11.7138 43.2704C7.84744 42.3817 4.48658 40.0061 2.3588 36.6578C0.231013 33.3095 -0.492491 29.2579 0.344904 25.3801C1.1823 21.5022 3.51545 18.1102 6.8353 15.9383ZM36.6464 18.2989C35.8106 22.1271 33.5198 25.4808 30.2577 27.6517C30.3794 29.7666 30.053 31.8834 29.2999 33.8634C28.5468 35.8435 27.3839 37.6421 25.8875 39.1416C28.6371 40.439 31.783 40.6187 34.6624 39.6427C37.5419 38.6668 39.9303 36.6115 41.3245 33.9097C42.7187 31.2079 43.01 28.0704 42.137 25.1581C41.264 22.2458 39.2948 19.7859 36.6441 18.2966L36.6464 18.2989ZM26.9001 29.3282C26.764 31.2537 26.155 33.1158 25.1272 34.7496C24.0994 36.3835 22.6845 37.7386 21.0078 38.6949C19.3311 39.6512 17.4445 40.1791 15.5149 40.232C13.5854 40.2849 11.6727 39.861 9.94613 38.9979C8.2196 38.1348 6.7326 36.8592 5.61689 35.2841C4.50118 33.709 3.79121 31.883 3.54988 29.9679C3.30855 28.0528 3.54332 26.1078 4.23337 24.3051C4.92343 22.5024 6.04748 20.8978 7.50592 19.6334C8.11531 21.5618 9.106 23.3482 10.4192 24.8863C11.7323 26.4245 13.3412 27.6831 15.1502 28.5874C16.9592 29.4917 18.9315 30.0232 20.95 30.1505C22.9684 30.2778 24.9918 29.9981 26.9001 29.3282ZM26.6252 25.8343C25.0464 26.5283 23.3342 26.866 21.6102 26.8233C19.8862 26.7807 18.1927 26.3587 16.6502 25.5875C15.1078 24.8162 13.7541 23.7146 12.6856 22.361C11.6171 21.0074 10.8599 19.435 10.4678 17.7557C12.0465 17.0617 13.7588 16.724 15.4828 16.7667C17.2068 16.8093 18.9002 17.2313 20.4427 18.0025C21.9852 18.7738 23.3388 19.8753 24.4074 21.2289C25.4759 22.5826 26.2331 24.1549 26.6252 25.8343Z" fill="#26273C"/>
</g>
<defs>
<clipPath id="clip0_40_144">
<rect width="46" height="43.6948" fill="white"/>
</clipPath>
</defs>
</svg>
